<svg width="12" height="12" viewBox="0 0 12 12" fill="none" xmlns="http://www.w3.org/2000/svg">
<g id="fi-ss-heart">
<g clip-path="url(#clip0_306_628)">
<path id="Vector" d="M8.23299 1.31335C7.72879 1.3212 7.23557 1.46195 6.80317 1.72139C6.37076 1.98084 6.01447 2.34979 5.77027 2.79099C5.52608 2.34979 5.16979 1.98084 4.73738 1.72139C4.30497 1.46195 3.81176 1.3212 3.30755 1.31335C2.50378 1.34828 1.7465 1.69989 1.20116 2.29138C0.655812 2.88287 0.366729 3.66616 0.397065 4.47011C0.397065 7.50374 5.3028 11.0075 5.51146 11.1562L5.77027 11.3393L6.02908 11.1562C6.23774 11.0084 11.1435 7.50374 11.1435 4.47011C11.1738 3.66616 10.8847 2.88287 10.3394 2.29138C9.79404 1.69989 9.03676 1.34828 8.23299 1.31335Z" fill="white"/>
</g>
</g>
<defs>
<clipPath id="clip0_306_628">
<path d="M0.396973 1.90271C0.396973 1.35042 0.844688 0.90271 1.39697 0.90271H10.1434C10.6957 0.90271 11.1434 1.35043 11.1434 1.90271V10.6491C11.1434 11.2014 10.6957 11.6491 10.1434 11.6491H1.39697C0.844687 11.6491 0.396973 11.2014 0.396973 10.6491V1.90271Z" fill="white"/>
</clipPath>
</defs>
</svg>
