<svg xmlns="http://www.w3.org/2000/svg" width="30" height="30" viewBox="0 0 30 30" fill="none">
  <path d="M18.2378 19.994L20.0055 18.2262L27.5186 25.7391L25.7509 27.5069L18.2378 19.994Z" fill="#616161"/>
  <path d="M12.5 2.50012C9.84784 2.50012 7.3043 3.55369 5.42893 5.42905C3.55357 7.30442 2.5 9.84796 2.5 12.5001C2.5 15.1523 3.55357 17.6958 5.42893 19.5712C7.3043 21.4466 9.84784 22.5001 12.5 22.5001C15.1522 22.5001 17.6957 21.4466 19.5711 19.5712C21.4464 17.6958 22.5 15.1523 22.5 12.5001C22.5 9.84796 21.4464 7.30442 19.5711 5.42905C17.6957 3.55369 15.1522 2.50012 12.5 2.50012Z" fill="#616161"/>
  <path d="M20.2849 22.0881L22.0526 20.3203L27.4886 25.7561L25.7209 27.5239L20.2849 22.0881Z" fill="#37474F"/>
  <path d="M12.5 4.37512C10.3451 4.37512 8.27849 5.23115 6.75476 6.75488C5.23102 8.27861 4.375 10.3452 4.375 12.5001C4.375 14.655 5.23102 16.7216 6.75476 18.2454C8.27849 19.7691 10.3451 20.6251 12.5 20.6251C14.6549 20.6251 16.7215 19.7691 18.2452 18.2454C19.769 16.7216 20.625 14.655 20.625 12.5001C20.625 10.3452 19.769 8.27861 18.2452 6.75488C16.7215 5.23115 14.6549 4.37512 12.5 4.37512Z" fill="#64B5F6"/>
  <path d="M16.8125 8.87512C15.75 7.62512 14.1875 6.87512 12.5 6.87512C10.8125 6.87512 9.25 7.62512 8.1875 8.87512C7.9375 9.12512 8 9.56262 8.25 9.75012C8.5 10.0001 8.9375 9.93762 9.125 9.68762C10 8.68762 11.1875 8.12512 12.5 8.12512C13.8125 8.12512 15 8.68762 15.875 9.68762C16 9.81262 16.1875 9.93762 16.375 9.93762C16.5 9.93762 16.6875 9.87512 16.75 9.81262C17 9.56262 17 9.12512 16.8125 8.87512Z" fill="#BBDEFB"/>
</svg>