<svg xmlns="http://www.w3.org/2000/svg" width="30" height="32" display="block">
    <path
        d="M29.386 22.71a16.927 16.927 0 00-.47-1.154c-.246-.555-.503-1.111-.752-1.65l-.02-.042a369.129 369.129 0 00-7.078-14.477l-.105-.204c-.253-.49-.514-.997-.783-1.495a9.714 9.714 0 00-1.15-1.771A5.358 5.358 0 0014.917 0a5.368 5.368 0 00-4.111 1.918 9.756 9.756 0 00-1.15 1.77c-.27.503-.535 1.015-.79 1.51l-.097.189A369.464 369.464 0 001.69 19.864l-.032.07c-.245.529-.497 1.076-.739 1.622-.16.361-.327.75-.47 1.154a7.074 7.074 0 00-.382 3.448 6.812 6.812 0 004.18 5.335 6.945 6.945 0 002.62.507c.281 0 .563-.017.843-.05a8.613 8.613 0 003.222-1.086c1.3-.73 2.583-1.8 3.985-3.33 1.402 1.53 2.686 2.6 3.986 3.33.99.573 2.086.942 3.221 1.087.28.032.562.049.845.049a6.944 6.944 0 002.62-.507 6.812 6.812 0 004.18-5.335 7.08 7.08 0 00-.383-3.448zm-14.469 1.667c-1.735-2.2-2.85-4.243-3.24-5.956a5.267 5.267 0 01-.111-1.964c.068-.48.244-.94.516-1.342a3.576 3.576 0 012.835-1.393 3.584 3.584 0 012.836 1.393c.271.403.448.862.516 1.343a5.269 5.269 0 01-.112 1.964c-.39 1.713-1.504 3.755-3.24 5.955zm12.824 1.492a4.764 4.764 0 01-2.923 3.73 4.99 4.99 0 01-2.457.322 6.492 6.492 0 01-2.454-.839c-1.157-.65-2.328-1.647-3.646-3.11 2.098-2.587 3.408-4.972 3.893-7.095.218-.893.266-1.82.14-2.73a5.234 5.234 0 00-.852-2.188 5.62 5.62 0 00-4.524-2.281 5.63 5.63 0 00-4.525 2.28 5.234 5.234 0 00-.852 2.188c-.126.91-.079 1.836.14 2.729.484 2.124 1.794 4.509 3.892 7.096-1.318 1.464-2.489 2.462-3.645 3.111a6.491 6.491 0 01-2.454.838 4.991 4.991 0 01-2.458-.321 4.776 4.776 0 01-2.922-3.73 5.017 5.017 0 01.284-2.474c.115-.322.249-.638.415-1.013.234-.531.484-1.07.725-1.592l.032-.07a367.445 367.445 0 017.04-14.397l.098-.19c.25-.487.51-.99.772-1.477.25-.501.553-.974.904-1.412a3.311 3.311 0 013.964-.885c.441.208.831.51 1.142.885.351.437.654.91.904 1.411.26.482.517.981.766 1.464l.105.204a367 367 0 017.04 14.397l.02.043c.245.53.498 1.079.737 1.619.166.376.3.692.415 1.012a5.02 5.02 0 01.284 2.475z"
        fill="currentcolor" />
</svg>