<svg width="24" height="24" viewBox="0 0 24 24" fill="none" xmlns="http://www.w3.org/2000/svg">
<path fill-rule="evenodd" clip-rule="evenodd" d="M18.6615 9.07607C18.6673 9.22598 18.6692 9.37582 18.6692 9.52572C18.6692 14.0705 15.4722 19.3171 9.62599 19.3171C7.83014 19.3171 6.16025 18.7447 4.75328 17.7704C5.00199 17.7976 5.25457 17.8181 5.51103 17.8181C7.00004 17.8181 8.37148 17.2661 9.45933 16.3394C8.06851 16.319 6.8941 15.3174 6.48907 13.9546C6.68351 13.9955 6.88375 14.016 7.08853 14.016C7.37729 14.016 7.65765 13.9752 7.92638 13.8934C6.47096 13.58 5.37473 12.19 5.37473 10.5207C5.37473 10.5002 5.37473 10.4934 5.37473 10.4797C5.80367 10.7318 6.29461 10.8885 6.81593 10.9089C5.96193 10.2889 5.40055 9.23278 5.40055 8.04038C5.40055 7.41352 5.55688 6.8207 5.83207 6.30967C7.39925 8.39466 9.74228 9.76424 12.3837 9.90733C12.3295 9.65522 12.3017 9.38955 12.3017 9.12382C12.3017 7.22279 13.7248 5.68286 15.4806 5.68286C16.3947 5.68286 17.2203 6.09856 17.7997 6.7663C18.5252 6.6164 19.2047 6.33024 19.8197 5.93505C19.5814 6.73907 19.0781 7.41348 18.4205 7.83593C19.0639 7.75417 19.6776 7.57034 20.2467 7.29779C19.8197 7.98597 19.2823 8.5923 18.6615 9.07607Z" fill="#4B5563"/>
</svg>
