<svg width="256" height="81" viewBox="0 0 256 81" fill="none" xmlns="http://www.w3.org/2000/svg">
<path d="M73.6745 57.4244C73.2716 56.4379 72.8939 55.4008 72.4911 54.5155L70.6279 50.2911L70.5523 50.2152C65.013 38.0734 59.096 25.7292 52.8266 13.5873L52.5748 13.0814C51.9453 11.8925 51.3159 10.5771 50.6612 9.36296C49.8555 7.92111 49.075 6.37808 47.7908 4.91094C46.5391 3.37584 44.9639 2.13903 43.1786 1.28978C41.3934 0.440522 39.4428 0 37.4676 0C35.4924 0 33.5418 0.440522 31.7565 1.28978C29.9713 2.13903 28.3961 3.37584 27.1444 4.91094C25.961 6.37808 25.0797 7.92111 24.274 9.36296C23.6445 10.6783 23.0151 11.9684 22.3604 13.1573L22.1086 13.6632C15.9399 25.805 9.92217 38.1493 4.38287 50.2911L4.2318 50.4429C3.67787 51.7582 3.02323 53.1242 2.39376 54.5913C1.9909 55.4767 1.58804 56.4379 1.18519 57.5003C0.097551 60.2823 -0.249765 63.301 0.177467 66.2589C0.604699 69.2168 1.79173 72.0117 3.62158 74.3684C5.45143 76.7251 7.86094 78.562 10.6126 79.6983C13.3643 80.8345 16.3632 81.2308 19.3138 80.8481C22.1425 80.474 24.8664 79.5274 27.3206 78.0656C30.5938 76.219 33.7412 73.5377 37.2662 69.6675C40.7912 73.5377 44.014 76.219 47.2117 78.0909C50.2868 79.9042 53.7691 80.905 57.3335 80.9998C61.4612 81.0171 65.4557 79.5334 68.5795 76.8228C71.7034 74.1123 73.7456 70.3578 74.3291 66.2526C75.0035 63.3025 74.7753 60.2167 73.6745 57.3991V57.4244ZM37.518 61.6235C33.1872 56.0585 30.3672 50.9488 29.4104 46.5727C29.014 44.9511 28.9286 43.2685 29.1587 41.6147C29.3349 40.3247 29.8133 39.1864 30.4679 38.2251C31.9787 36.0244 34.6224 34.6585 37.518 34.6585C38.8931 34.6163 40.2571 34.9177 41.4876 35.5359C42.7181 36.154 43.7765 37.0693 44.568 38.1998C45.2226 39.2117 45.701 40.3247 45.8521 41.6147C46.1039 43.0819 46.0032 44.7767 45.6003 46.5727C44.6435 50.8729 41.8235 56.0332 37.518 61.6235ZM69.5955 65.3672C69.3095 67.4514 68.4848 69.424 67.2037 71.0883C65.9225 72.7526 64.2297 74.0506 62.2937 74.853C60.3802 75.6625 58.2652 75.8902 56.2005 75.6625C54.1862 75.4095 52.1719 74.7519 50.1073 73.5377C46.6792 71.409 43.5967 68.7644 40.9674 65.6961C46.2549 59.1192 49.4526 53.1242 50.6612 47.7868C51.2403 45.2573 51.3159 42.9807 51.0641 40.8812C50.7497 38.8911 50.011 36.9928 48.8987 35.3162C47.6287 33.4981 45.9335 32.0213 43.9622 31.0156C41.991 30.01 39.804 29.5063 37.5935 29.5488C32.9354 29.5488 28.781 31.7242 26.2631 35.2909C25.1297 36.9633 24.3971 38.8767 24.1229 40.8812C23.7956 43.006 23.8711 45.3585 24.5258 47.7868C25.7344 53.1242 29.0076 59.1951 34.2196 65.7467C31.6349 68.8736 28.5452 71.5415 25.0797 73.6389C22.9899 74.853 21.0008 75.4854 18.9865 75.7384C15.854 76.1415 12.6897 75.2862 10.1814 73.3584C7.67315 71.4305 6.02365 68.586 5.59145 65.4431C5.33966 63.4195 5.51591 61.3958 6.32163 59.1192C6.57341 58.3098 6.95109 57.5003 7.35395 56.5391C7.90788 55.2237 8.56253 53.8578 9.19199 52.4918L9.29271 52.3147C14.7313 40.2488 20.6735 27.9299 26.8422 15.8639L27.094 15.358C27.7235 14.1438 28.3529 12.8537 29.0076 11.6396C29.6622 10.3495 30.3672 9.11 31.2737 8.09818C32.0583 7.15724 33.0386 6.40053 34.1457 5.88132C35.2529 5.36212 36.4598 5.09304 37.6816 5.09304C38.9034 5.09304 40.1104 5.36212 41.2175 5.88132C42.3246 6.40053 43.305 7.15724 44.0896 8.09818C44.9708 9.11 45.701 10.3495 46.3557 11.6396C46.9851 12.8537 47.6146 14.1691 48.2692 15.358L48.521 15.8639C54.6646 27.9299 60.6068 40.2488 66.1461 52.3147L66.2216 52.3906C66.8763 53.706 67.4302 55.1731 68.0596 56.4379C68.4625 57.4244 68.8654 58.2086 69.1171 59.0433C69.5955 61.3199 69.8473 63.3436 69.5955 65.3672ZM104.644 61.067C102.747 61.0949 100.868 60.6932 99.146 59.8919C97.4243 59.0905 95.9042 57.91 94.6986 56.4379C91.9896 53.3012 90.5518 49.2567 90.6701 45.1055C90.6286 40.864 92.1128 36.75 94.8497 33.5202C96.1157 32.0293 97.6916 30.8354 99.4665 30.0225C101.241 29.2096 103.172 28.7975 105.123 28.8152C106.958 28.7647 108.776 29.184 110.406 30.0336C112.035 30.8832 113.423 32.1352 114.439 33.6719L114.69 29.7006H122.043V60.2575H114.665L114.413 55.8055C113.367 57.4463 111.919 58.791 110.21 59.7119C108.5 60.6328 106.584 61.0992 104.644 61.067ZM106.558 53.7819C108.018 53.7819 109.302 53.3772 110.511 52.6436C111.619 51.8341 112.525 50.7717 113.23 49.4816C113.86 48.1916 114.187 46.6485 114.187 44.9284C114.285 43.4345 113.996 41.9405 113.347 40.5926C112.698 39.2447 111.712 38.089 110.486 37.2386C109.307 36.5009 107.946 36.1099 106.558 36.1099C105.169 36.1099 103.808 36.5009 102.63 37.2386C101.522 38.0481 100.616 39.1105 99.9106 40.4006C99.2448 41.8233 98.9172 43.382 98.9538 44.9537C98.8557 46.4477 99.1451 47.9417 99.7939 49.2896C100.443 50.6375 101.429 51.7932 102.655 52.6436C103.838 53.3772 105.123 53.7819 106.558 53.7819ZM134.632 21.4542C134.632 22.3396 134.481 23.149 134.078 23.8067C133.675 24.4391 133.121 25.0209 132.391 25.4256C131.661 25.8303 130.88 25.9821 130.075 25.9821C129.269 25.9821 128.463 25.8303 127.733 25.4256C127.042 25.0394 126.462 24.4821 126.046 23.8067C125.656 23.0861 125.465 22.2739 125.492 21.4542C125.492 20.5436 125.668 19.7341 126.046 19.1017C126.449 18.3429 127.028 17.8875 127.733 17.4828C128.463 17.0781 129.244 16.901 130.075 16.901C130.876 16.8825 131.669 17.0732 132.375 17.4545C133.081 17.8358 133.676 18.3946 134.103 19.0764C134.47 19.8139 134.651 20.6302 134.632 21.4542ZM126.071 60.1563V29.65H134.078V60.2069H126.046L126.071 60.1563ZM155.48 37.6433V37.7445C155.102 37.5675 154.599 37.4916 154.221 37.4157C153.717 37.3145 153.314 37.3145 152.836 37.3145C150.595 37.3145 148.908 37.9722 147.8 39.3381C146.592 40.7294 146.038 42.6772 146.038 45.1814V60.1816H138.006V29.6247H145.383L145.635 34.2537C146.441 32.6348 147.398 31.4206 148.757 30.51C150.11 29.6252 151.702 29.1833 153.314 29.2452C153.894 29.2452 154.448 29.2958 154.926 29.397C155.178 29.4729 155.329 29.4729 155.48 29.5488V37.6433ZM158.703 60.1563V17.1034H166.71V33.5455C167.843 32.0783 169.127 30.94 170.738 30.0547C173.289 28.7981 176.187 28.4416 178.965 29.0429C181.742 29.6441 184.237 31.1679 186.047 33.3684C188.762 36.5116 190.2 40.5662 190.075 44.7261C190.117 48.9676 188.633 53.0816 185.896 56.3114C184.63 57.8023 183.054 58.9962 181.279 59.8091C179.504 60.622 177.573 61.0341 175.623 61.0164C173.787 61.0669 171.969 60.6476 170.34 59.798C168.71 58.9484 167.322 57.6964 166.307 56.1597L166.055 60.1311L158.703 60.2069V60.1563ZM174.188 53.7819C175.623 53.7819 176.907 53.3772 178.115 52.6436C179.223 51.8341 180.13 50.7717 180.835 49.4816C181.489 48.1916 181.792 46.6485 181.792 44.9284C181.792 43.2337 181.489 41.6906 180.835 40.4006C180.174 39.1566 179.245 38.0764 178.115 37.2386C176.937 36.5009 175.576 36.1099 174.188 36.1099C172.799 36.1099 171.438 36.5009 170.26 37.2386C169.127 38.0481 168.245 39.1105 167.515 40.4006C166.849 41.8233 166.522 43.382 166.558 44.9537C166.46 46.4477 166.75 47.9417 167.399 49.2896C168.047 50.6375 169.033 51.7932 170.26 52.6436C171.443 53.3772 172.727 53.7819 174.188 53.7819ZM193.097 60.1816V29.6247H200.474L200.726 33.5961C201.653 32.0737 202.968 30.8279 204.535 29.9874C206.102 29.1468 207.864 28.7422 209.639 28.8152C211.669 28.78 213.664 29.3467 215.374 30.4445C217.085 31.5423 218.436 33.1224 219.257 34.9873C220.139 36.9098 220.617 39.2875 220.617 41.9436V60.2575H212.585V43.006C212.585 40.8812 212.107 39.2117 211.15 37.9722C210.193 36.758 208.884 36.1003 207.222 36.1003C206.013 36.1003 204.956 36.3533 204.024 36.9098C203.143 37.4916 202.413 38.2251 201.859 39.2623C201.299 40.3106 201.021 41.4878 201.053 42.6772V60.1816H193.097ZM224.62 60.1816V17.0781H232.652V33.5202C233.74 32.0448 235.156 30.8446 236.786 30.0147C238.416 29.1848 240.216 28.7481 242.044 28.7393C243.941 28.7114 245.821 29.1131 247.542 29.9144C249.264 30.7158 250.784 31.8963 251.99 33.3684C254.685 36.5114 256.113 40.5537 255.993 44.7008C256.037 48.9427 254.552 53.0574 251.813 56.2861C250.547 57.777 248.971 58.9709 247.197 59.7838C245.422 60.5967 243.491 61.0088 241.54 60.9911C239.705 61.0416 237.887 60.6223 236.257 59.7727C234.628 58.9231 233.24 57.6711 232.224 56.1344L231.998 60.1058L224.62 60.1816ZM240.181 53.7819C241.641 53.7819 242.925 53.3772 244.109 52.6436C245.242 51.8341 246.123 50.7717 246.853 49.4816C247.483 48.1916 247.81 46.6485 247.81 44.9284C247.908 43.4345 247.619 41.9405 246.97 40.5926C246.321 39.2447 245.335 38.089 244.109 37.2386C242.93 36.5009 241.569 36.1099 240.181 36.1099C238.792 36.1099 237.431 36.5009 236.253 37.2386C235.145 38.0481 234.239 39.1105 233.534 40.4006C232.831 41.8106 232.501 43.3787 232.577 44.9537C232.479 46.4477 232.768 47.9417 233.417 49.2896C234.066 50.6375 235.052 51.7932 236.278 52.6436C237.462 53.3772 238.67 53.7819 240.181 53.7819Z" fill="white"/>
</svg>
